<?xml version="1.0" encoding="UTF-8" standalone="no"?>
<!DOCTYPE svg PUBLIC "-//W3C//DTD SVG 1.1//EN"
 "http://www.w3.org/Graphics/SVG/1.1/DTD/svg11.dtd">
<!-- Generated by graphviz version 2.38.0 (20140413.2041)
 -->
<!-- Title: deps Pages: 1 -->
<svg width="770pt" height="692pt"
 viewBox="0.00 0.00 769.84 692.00" xmlns="http://www.w3.org/2000/svg" xmlns:xlink="http://www.w3.org/1999/xlink">
<g id="graph0" class="graph" transform="scale(1 1) rotate(0) translate(4 688)">
<title>deps</title>
<polygon fill="white" stroke="none" points="-4,4 -4,-688 765.843,-688 765.843,4 -4,4"/>
<!-- base -->
<g id="node1" class="node"><title>base</title>
<polygon fill="none" stroke="black" points="639.146,-36 585.146,-36 585.146,-0 639.146,-0 639.146,-36"/>
<text text-anchor="middle" x="612.146" y="-14.3" font-family="Times,serif" font-size="14.00">base</text>
</g>
<!-- ghc&#45;prim -->
<g id="node2" class="node"><title>ghc&#45;prim</title>
<polygon fill="none" stroke="black" points="190.646,-36 123.646,-36 123.646,-0 190.646,-0 190.646,-36"/>
<text text-anchor="middle" x="157.146" y="-14.3" font-family="Times,serif" font-size="14.00">ghc&#45;prim</text>
</g>
<!-- integer&#45;gmp -->
<g id="node3" class="node"><title>integer&#45;gmp</title>
<polygon fill="none" stroke="black" points="87.6459,-36 4.64591,-36 4.64591,-0 87.6459,-0 87.6459,-36"/>
<text text-anchor="middle" x="46.1459" y="-14.3" font-family="Times,serif" font-size="14.00">integer&#45;gmp</text>
</g>
<!-- template&#45;haskell -->
<g id="node4" class="node"><title>template&#45;haskell</title>
<polygon fill="none" stroke="black" points="441.646,-36 334.646,-36 334.646,-0 441.646,-0 441.646,-36"/>
<text text-anchor="middle" x="388.146" y="-14.3" font-family="Times,serif" font-size="14.00">template&#45;haskell</text>
</g>
<!-- tcp -->
<g id="node5" class="node"><title>tcp</title>
<ellipse fill="none" stroke="black" stroke-dasharray="5,2" cx="398.146" cy="-666" rx="27" ry="18"/>
<text text-anchor="middle" x="398.146" y="-662.3" font-family="Times,serif" font-size="14.00">tcp</text>
</g>
<!-- dirstream -->
<g id="node6" class="node"><title>dirstream</title>
<ellipse fill="none" stroke="black" cx="398.146" cy="-594" rx="44.393" ry="18"/>
<text text-anchor="middle" x="398.146" y="-590.3" font-family="Times,serif" font-size="14.00">dirstream</text>
</g>
<!-- tcp&#45;&gt;dirstream -->
<g id="edge1" class="edge"><title>tcp&#45;&gt;dirstream</title>
<path fill="none" stroke="black" d="M398.146,-647.697C398.146,-639.983 398.146,-630.712 398.146,-622.112"/>
<polygon fill="black" stroke="black" points="401.646,-622.104 398.146,-612.104 394.646,-622.104 401.646,-622.104"/>
</g>
<!-- monads&#45;tf -->
<g id="node7" class="node"><title>monads&#45;tf</title>
<ellipse fill="none" stroke="black" cx="630.146" cy="-450" rx="46.5926" ry="18"/>
<text text-anchor="middle" x="630.146" y="-446.3" font-family="Times,serif" font-size="14.00">monads&#45;tf</text>
</g>
<!-- tcp&#45;&gt;monads&#45;tf -->
<g id="edge2" class="edge"><title>tcp&#45;&gt;monads&#45;tf</title>
<path fill="none" stroke="black" d="M413.368,-650.959C452.615,-614.757 557.519,-517.992 605.535,-473.702"/>
<polygon fill="black" stroke="black" points="608.027,-476.165 613.004,-466.812 603.28,-471.019 608.027,-476.165"/>
</g>
<!-- unordered&#45;containers -->
<g id="node8" class="node"><title>unordered&#45;containers</title>
<ellipse fill="none" stroke="black" cx="207.146" cy="-594" rx="85.2851" ry="18"/>
<text text-anchor="middle" x="207.146" y="-590.3" font-family="Times,serif" font-size="14.00">unordered&#45;containers</text>
</g>
<!-- tcp&#45;&gt;unordered&#45;containers -->
<g id="edge3" class="edge"><title>tcp&#45;&gt;unordered&#45;containers</title>
<path fill="none" stroke="black" d="M375.107,-656.556C346.112,-645.93 295.498,-627.38 257.389,-613.414"/>
<polygon fill="black" stroke="black" points="258.585,-610.124 247.991,-609.969 256.176,-616.697 258.585,-610.124"/>
</g>
<!-- directory -->
<g id="node14" class="node"><title>directory</title>
<ellipse fill="none" stroke="black" cx="501.146" cy="-378" rx="42.4939" ry="18"/>
<text text-anchor="middle" x="501.146" y="-374.3" font-family="Times,serif" font-size="14.00">directory</text>
</g>
<!-- dirstream&#45;&gt;directory -->
<g id="edge19" class="edge"><title>dirstream&#45;&gt;directory</title>
<path fill="none" stroke="black" d="M406.228,-576.208C424.129,-539.016 467.222,-449.482 488.635,-404.993"/>
<polygon fill="black" stroke="black" points="491.918,-406.243 493.101,-395.714 485.611,-403.207 491.918,-406.243"/>
</g>
<!-- pipes&#45;safe -->
<g id="node18" class="node"><title>pipes&#45;safe</title>
<ellipse fill="none" stroke="black" cx="395.146" cy="-378" rx="46.2923" ry="18"/>
<text text-anchor="middle" x="395.146" y="-374.3" font-family="Times,serif" font-size="14.00">pipes&#45;safe</text>
</g>
<!-- dirstream&#45;&gt;pipes&#45;safe -->
<g id="edge20" class="edge"><title>dirstream&#45;&gt;pipes&#45;safe</title>
<path fill="none" stroke="black" d="M397.905,-575.849C397.387,-538.832 396.158,-451.181 395.53,-406.386"/>
<polygon fill="black" stroke="black" points="399.027,-406.182 395.387,-396.232 392.028,-406.281 399.027,-406.182"/>
</g>
<!-- system&#45;fileio -->
<g id="node19" class="node"><title>system&#45;fileio</title>
<ellipse fill="none" stroke="black" cx="313.146" cy="-522" rx="57.3905" ry="18"/>
<text text-anchor="middle" x="313.146" y="-518.3" font-family="Times,serif" font-size="14.00">system&#45;fileio</text>
</g>
<!-- dirstream&#45;&gt;system&#45;fileio -->
<g id="edge21" class="edge"><title>dirstream&#45;&gt;system&#45;fileio</title>
<path fill="none" stroke="black" d="M379.282,-577.465C367.887,-568.081 353.169,-555.96 340.512,-545.536"/>
<polygon fill="black" stroke="black" points="342.491,-542.632 332.547,-538.977 338.041,-548.036 342.491,-542.632"/>
</g>
<!-- transformers -->
<g id="node29" class="node"><title>transformers</title>
<ellipse fill="none" stroke="black" cx="612.146" cy="-90" rx="55.7903" ry="18"/>
<text text-anchor="middle" x="612.146" y="-86.3" font-family="Times,serif" font-size="14.00">transformers</text>
</g>
<!-- monads&#45;tf&#45;&gt;transformers -->
<g id="edge46" class="edge"><title>monads&#45;tf&#45;&gt;transformers</title>
<path fill="none" stroke="black" d="M641.478,-432.354C657.842,-406.655 686.146,-355.231 686.146,-307 686.146,-307 686.146,-307 686.146,-233 686.146,-192.553 686.789,-179.357 667.146,-144 660.806,-132.589 651.21,-122.118 641.799,-113.55"/>
<polygon fill="black" stroke="black" points="643.868,-110.712 634.013,-106.822 639.291,-116.008 643.868,-110.712"/>
</g>
<!-- hashable -->
<g id="node30" class="node"><title>hashable</title>
<ellipse fill="none" stroke="black" cx="162.146" cy="-522" rx="41.6928" ry="18"/>
<text text-anchor="middle" x="162.146" y="-518.3" font-family="Times,serif" font-size="14.00">hashable</text>
</g>
<!-- unordered&#45;containers&#45;&gt;hashable -->
<g id="edge47" class="edge"><title>unordered&#45;containers&#45;&gt;hashable</title>
<path fill="none" stroke="black" d="M196.253,-576.055C190.891,-567.715 184.319,-557.491 178.379,-548.252"/>
<polygon fill="black" stroke="black" points="181.291,-546.308 172.939,-539.789 175.402,-550.093 181.291,-546.308"/>
</g>
<!-- array -->
<g id="node9" class="node"><title>array</title>
<ellipse fill="none" stroke="black" cx="331.146" cy="-90" rx="28.6953" ry="18"/>
<text text-anchor="middle" x="331.146" y="-86.3" font-family="Times,serif" font-size="14.00">array</text>
</g>
<!-- array&#45;&gt;base -->
<g id="edge4" class="edge"><title>array&#45;&gt;base</title>
<path fill="none" stroke="black" d="M357.329,-82.4774C407.584,-69.9584 517.68,-42.5324 575.314,-28.1753"/>
<polygon fill="black" stroke="black" points="576.246,-31.5501 585.103,-25.7366 574.554,-24.7577 576.246,-31.5501"/>
</g>
<!-- binary -->
<g id="node10" class="node"><title>binary</title>
<ellipse fill="none" stroke="black" cx="142.146" cy="-306" rx="33.2948" ry="18"/>
<text text-anchor="middle" x="142.146" y="-302.3" font-family="Times,serif" font-size="14.00">binary</text>
</g>
<!-- bytestring -->
<g id="node11" class="node"><title>bytestring</title>
<ellipse fill="none" stroke="black" cx="46.1459" cy="-234" rx="46.2923" ry="18"/>
<text text-anchor="middle" x="46.1459" y="-230.3" font-family="Times,serif" font-size="14.00">bytestring</text>
</g>
<!-- binary&#45;&gt;bytestring -->
<g id="edge5" class="edge"><title>binary&#45;&gt;bytestring</title>
<path fill="none" stroke="black" d="M123.179,-291.17C109.532,-281.219 90.8696,-267.611 75.3317,-256.281"/>
<polygon fill="black" stroke="black" points="77.2149,-253.323 67.0727,-250.259 73.0906,-258.979 77.2149,-253.323"/>
</g>
<!-- containers -->
<g id="node12" class="node"><title>containers</title>
<ellipse fill="none" stroke="black" cx="157.146" cy="-234" rx="46.5926" ry="18"/>
<text text-anchor="middle" x="157.146" y="-230.3" font-family="Times,serif" font-size="14.00">containers</text>
</g>
<!-- binary&#45;&gt;containers -->
<g id="edge6" class="edge"><title>binary&#45;&gt;containers</title>
<path fill="none" stroke="black" d="M145.777,-288.055C147.447,-280.261 149.47,-270.822 151.343,-262.079"/>
<polygon fill="black" stroke="black" points="154.771,-262.787 153.444,-252.275 147.926,-261.32 154.771,-262.787"/>
</g>
<!-- bytestring&#45;&gt;ghc&#45;prim -->
<g id="edge7" class="edge"><title>bytestring&#45;&gt;ghc&#45;prim</title>
<path fill="none" stroke="black" d="M54.8559,-216.208C74.1396,-179.03 120.553,-89.5477 143.638,-45.0422"/>
<polygon fill="black" stroke="black" points="146.825,-46.4988 148.323,-36.0103 140.611,-43.2757 146.825,-46.4988"/>
</g>
<!-- bytestring&#45;&gt;integer&#45;gmp -->
<g id="edge8" class="edge"><title>bytestring&#45;&gt;integer&#45;gmp</title>
<path fill="none" stroke="black" d="M46.1459,-215.849C46.1459,-178.832 46.1459,-91.1809 46.1459,-46.3863"/>
<polygon fill="black" stroke="black" points="49.646,-46.2324 46.1459,-36.2325 42.646,-46.2325 49.646,-46.2324"/>
</g>
<!-- deepseq -->
<g id="node13" class="node"><title>deepseq</title>
<ellipse fill="none" stroke="black" cx="237.146" cy="-162" rx="38.9931" ry="18"/>
<text text-anchor="middle" x="237.146" y="-158.3" font-family="Times,serif" font-size="14.00">deepseq</text>
</g>
<!-- bytestring&#45;&gt;deepseq -->
<g id="edge9" class="edge"><title>bytestring&#45;&gt;deepseq</title>
<path fill="none" stroke="black" d="M78.5465,-221.125C111.526,-209.039 162.678,-190.292 197.927,-177.374"/>
<polygon fill="black" stroke="black" points="199.234,-180.622 207.418,-173.895 196.825,-174.05 199.234,-180.622"/>
</g>
<!-- containers&#45;&gt;ghc&#45;prim -->
<g id="edge10" class="edge"><title>containers&#45;&gt;ghc&#45;prim</title>
<path fill="none" stroke="black" d="M157.146,-215.849C157.146,-178.832 157.146,-91.1809 157.146,-46.3863"/>
<polygon fill="black" stroke="black" points="160.646,-46.2324 157.146,-36.2325 153.646,-46.2325 160.646,-46.2324"/>
</g>
<!-- containers&#45;&gt;deepseq -->
<g id="edge11" class="edge"><title>containers&#45;&gt;deepseq</title>
<path fill="none" stroke="black" d="M175.299,-217.116C186.087,-207.677 199.932,-195.562 211.787,-185.189"/>
<polygon fill="black" stroke="black" points="214.393,-187.559 219.614,-178.34 209.784,-182.291 214.393,-187.559"/>
</g>
<!-- deepseq&#45;&gt;array -->
<g id="edge12" class="edge"><title>deepseq&#45;&gt;array</title>
<path fill="none" stroke="black" d="M257.081,-146.155C271.047,-135.755 289.849,-121.753 305.014,-110.46"/>
<polygon fill="black" stroke="black" points="307.528,-112.951 313.458,-104.172 303.347,-107.337 307.528,-112.951"/>
</g>
<!-- filepath -->
<g id="node15" class="node"><title>filepath</title>
<ellipse fill="none" stroke="black" cx="724.146" cy="-90" rx="37.8943" ry="18"/>
<text text-anchor="middle" x="724.146" y="-86.3" font-family="Times,serif" font-size="14.00">filepath</text>
</g>
<!-- directory&#45;&gt;filepath -->
<g id="edge13" class="edge"><title>directory&#45;&gt;filepath</title>
<path fill="none" stroke="black" d="M526.476,-363.363C561.997,-343.15 626.776,-302.171 667.146,-252 699.183,-212.185 713.918,-153.008 720.127,-118.584"/>
<polygon fill="black" stroke="black" points="723.644,-118.776 721.855,-108.334 716.741,-117.613 723.644,-118.776"/>
</g>
<!-- unix -->
<g id="node16" class="node"><title>unix</title>
<ellipse fill="none" stroke="black" cx="249.146" cy="-306" rx="27" ry="18"/>
<text text-anchor="middle" x="249.146" y="-302.3" font-family="Times,serif" font-size="14.00">unix</text>
</g>
<!-- directory&#45;&gt;unix -->
<g id="edge14" class="edge"><title>directory&#45;&gt;unix</title>
<path fill="none" stroke="black" d="M469.415,-366.074C463.057,-363.984 456.407,-361.867 450.146,-360 392.244,-342.735 324.106,-325.383 283.887,-315.443"/>
<polygon fill="black" stroke="black" points="284.59,-312.012 274.043,-313.021 282.917,-318.809 284.59,-312.012"/>
</g>
<!-- filepath&#45;&gt;base -->
<g id="edge15" class="edge"><title>filepath&#45;&gt;base</title>
<path fill="none" stroke="black" d="M702.018,-75.1703C686.709,-65.6021 665.99,-52.6528 648.304,-41.5988"/>
<polygon fill="black" stroke="black" points="649.711,-38.3511 639.376,-36.019 646.001,-44.2871 649.711,-38.3511"/>
</g>
<!-- unix&#45;&gt;bytestring -->
<g id="edge17" class="edge"><title>unix&#45;&gt;bytestring</title>
<path fill="none" stroke="black" d="M225.462,-296.833C192.154,-285.348 130.905,-264.227 89.3611,-249.902"/>
<polygon fill="black" stroke="black" points="90.3687,-246.547 79.774,-246.596 88.0867,-253.165 90.3687,-246.547"/>
</g>
<!-- time -->
<g id="node17" class="node"><title>time</title>
<ellipse fill="none" stroke="black" cx="249.146" cy="-234" rx="27" ry="18"/>
<text text-anchor="middle" x="249.146" y="-230.3" font-family="Times,serif" font-size="14.00">time</text>
</g>
<!-- unix&#45;&gt;time -->
<g id="edge18" class="edge"><title>unix&#45;&gt;time</title>
<path fill="none" stroke="black" d="M249.146,-287.697C249.146,-279.983 249.146,-270.712 249.146,-262.112"/>
<polygon fill="black" stroke="black" points="252.646,-262.104 249.146,-252.104 245.646,-262.104 252.646,-262.104"/>
</g>
<!-- time&#45;&gt;deepseq -->
<g id="edge16" class="edge"><title>time&#45;&gt;deepseq</title>
<path fill="none" stroke="black" d="M246.241,-216.055C244.919,-208.346 243.322,-199.027 241.837,-190.364"/>
<polygon fill="black" stroke="black" points="245.247,-189.54 240.107,-180.275 238.347,-190.723 245.247,-189.54"/>
</g>
<!-- pipes&#45;safe&#45;&gt;containers -->
<g id="edge24" class="edge"><title>pipes&#45;safe&#45;&gt;containers</title>
<path fill="none" stroke="black" d="M373.191,-361.908C358.647,-351.653 339.339,-337.542 323.146,-324 305.299,-309.076 304.663,-300.661 285.146,-288 259.584,-271.417 227.976,-258.268 202.565,-249.215"/>
<polygon fill="black" stroke="black" points="203.397,-245.799 192.802,-245.827 201.103,-252.412 203.397,-245.799"/>
</g>
<!-- pipes -->
<g id="node20" class="node"><title>pipes</title>
<ellipse fill="none" stroke="black" cx="508.146" cy="-306" rx="29.4969" ry="18"/>
<text text-anchor="middle" x="508.146" y="-302.3" font-family="Times,serif" font-size="14.00">pipes</text>
</g>
<!-- pipes&#45;safe&#45;&gt;pipes -->
<g id="edge25" class="edge"><title>pipes&#45;safe&#45;&gt;pipes</title>
<path fill="none" stroke="black" d="M418.834,-362.326C436.52,-351.37 460.771,-336.348 479.539,-324.721"/>
<polygon fill="black" stroke="black" points="481.602,-327.56 488.26,-319.319 477.915,-321.61 481.602,-327.56"/>
</g>
<!-- monad&#45;control -->
<g id="node23" class="node"><title>monad&#45;control</title>
<ellipse fill="none" stroke="black" cx="395.146" cy="-306" rx="63.0888" ry="18"/>
<text text-anchor="middle" x="395.146" y="-302.3" font-family="Times,serif" font-size="14.00">monad&#45;control</text>
</g>
<!-- pipes&#45;safe&#45;&gt;monad&#45;control -->
<g id="edge26" class="edge"><title>pipes&#45;safe&#45;&gt;monad&#45;control</title>
<path fill="none" stroke="black" d="M395.146,-359.697C395.146,-351.983 395.146,-342.712 395.146,-334.112"/>
<polygon fill="black" stroke="black" points="398.646,-334.104 395.146,-324.104 391.646,-334.104 398.646,-334.104"/>
</g>
<!-- system&#45;fileio&#45;&gt;unix -->
<g id="edge27" class="edge"><title>system&#45;fileio&#45;&gt;unix</title>
<path fill="none" stroke="black" d="M311.025,-503.722C308.575,-485.629 303.985,-456.496 297.146,-432 287.366,-396.972 271.614,-358.073 260.84,-333.117"/>
<polygon fill="black" stroke="black" points="263.911,-331.404 256.7,-323.642 257.497,-334.207 263.911,-331.404"/>
</g>
<!-- system&#45;filepath -->
<g id="node24" class="node"><title>system&#45;filepath</title>
<ellipse fill="none" stroke="black" cx="222.146" cy="-450" rx="65.7887" ry="18"/>
<text text-anchor="middle" x="222.146" y="-446.3" font-family="Times,serif" font-size="14.00">system&#45;filepath</text>
</g>
<!-- system&#45;fileio&#45;&gt;system&#45;filepath -->
<g id="edge28" class="edge"><title>system&#45;fileio&#45;&gt;system&#45;filepath</title>
<path fill="none" stroke="black" d="M292.497,-505.116C280.337,-495.763 264.762,-483.782 251.36,-473.472"/>
<polygon fill="black" stroke="black" points="253.405,-470.63 243.345,-467.307 249.137,-476.178 253.405,-470.63"/>
</g>
<!-- exceptions -->
<g id="node21" class="node"><title>exceptions</title>
<ellipse fill="none" stroke="black" cx="508.146" cy="-234" rx="48.1917" ry="18"/>
<text text-anchor="middle" x="508.146" y="-230.3" font-family="Times,serif" font-size="14.00">exceptions</text>
</g>
<!-- pipes&#45;&gt;exceptions -->
<g id="edge22" class="edge"><title>pipes&#45;&gt;exceptions</title>
<path fill="none" stroke="black" d="M508.146,-287.697C508.146,-279.983 508.146,-270.712 508.146,-262.112"/>
<polygon fill="black" stroke="black" points="511.646,-262.104 508.146,-252.104 504.646,-262.104 511.646,-262.104"/>
</g>
<!-- mmorph -->
<g id="node22" class="node"><title>mmorph</title>
<ellipse fill="none" stroke="black" cx="616.146" cy="-234" rx="41.6928" ry="18"/>
<text text-anchor="middle" x="616.146" y="-230.3" font-family="Times,serif" font-size="14.00">mmorph</text>
</g>
<!-- pipes&#45;&gt;mmorph -->
<g id="edge23" class="edge"><title>pipes&#45;&gt;mmorph</title>
<path fill="none" stroke="black" d="M527.704,-292.324C543.761,-281.916 566.793,-266.988 585.327,-254.975"/>
<polygon fill="black" stroke="black" points="587.261,-257.893 593.749,-249.517 583.454,-252.019 587.261,-257.893"/>
</g>
<!-- exceptions&#45;&gt;template&#45;haskell -->
<g id="edge30" class="edge"><title>exceptions&#45;&gt;template&#45;haskell</title>
<path fill="none" stroke="black" d="M470.188,-222.81C448.149,-214.853 421.903,-201.455 407.146,-180 379.656,-140.034 380.569,-80.9085 384.1,-46.5357"/>
<polygon fill="black" stroke="black" points="387.612,-46.6421 385.307,-36.3012 380.66,-45.8228 387.612,-46.6421"/>
</g>
<!-- mtl -->
<g id="node26" class="node"><title>mtl</title>
<ellipse fill="none" stroke="black" cx="631.146" cy="-162" rx="27" ry="18"/>
<text text-anchor="middle" x="631.146" y="-158.3" font-family="Times,serif" font-size="14.00">mtl</text>
</g>
<!-- exceptions&#45;&gt;mtl -->
<g id="edge31" class="edge"><title>exceptions&#45;&gt;mtl</title>
<path fill="none" stroke="black" d="M533.334,-218.666C553.415,-207.237 581.544,-191.229 602.485,-179.311"/>
<polygon fill="black" stroke="black" points="604.3,-182.305 611.26,-174.317 600.838,-176.222 604.3,-182.305"/>
</g>
<!-- stm -->
<g id="node27" class="node"><title>stm</title>
<ellipse fill="none" stroke="black" cx="333.146" cy="-162" rx="27" ry="18"/>
<text text-anchor="middle" x="333.146" y="-158.3" font-family="Times,serif" font-size="14.00">stm</text>
</g>
<!-- exceptions&#45;&gt;stm -->
<g id="edge32" class="edge"><title>exceptions&#45;&gt;stm</title>
<path fill="none" stroke="black" d="M476.139,-220.511C448.954,-209.863 408.927,-194.088 374.146,-180 371.24,-178.823 368.222,-177.591 365.201,-176.35"/>
<polygon fill="black" stroke="black" points="366.254,-172.999 355.675,-172.419 363.584,-179.469 366.254,-172.999"/>
</g>
<!-- transformers&#45;compat -->
<g id="node28" class="node"><title>transformers&#45;compat</title>
<ellipse fill="none" stroke="black" cx="501.146" cy="-162" rx="85.2851" ry="18"/>
<text text-anchor="middle" x="501.146" y="-158.3" font-family="Times,serif" font-size="14.00">transformers&#45;compat</text>
</g>
<!-- exceptions&#45;&gt;transformers&#45;compat -->
<g id="edge33" class="edge"><title>exceptions&#45;&gt;transformers&#45;compat</title>
<path fill="none" stroke="black" d="M506.416,-215.697C505.644,-207.983 504.717,-198.712 503.857,-190.112"/>
<polygon fill="black" stroke="black" points="507.334,-189.706 502.856,-180.104 500.369,-190.403 507.334,-189.706"/>
</g>
<!-- mmorph&#45;&gt;mtl -->
<g id="edge41" class="edge"><title>mmorph&#45;&gt;mtl</title>
<path fill="none" stroke="black" d="M619.777,-216.055C621.447,-208.261 623.47,-198.822 625.343,-190.079"/>
<polygon fill="black" stroke="black" points="628.771,-190.787 627.444,-180.275 621.926,-189.32 628.771,-190.787"/>
</g>
<!-- mmorph&#45;&gt;transformers&#45;compat -->
<g id="edge42" class="edge"><title>mmorph&#45;&gt;transformers&#45;compat</title>
<path fill="none" stroke="black" d="M592.874,-218.834C576.743,-209.016 554.961,-195.757 536.671,-184.624"/>
<polygon fill="black" stroke="black" points="538.375,-181.564 528.013,-179.354 534.735,-187.543 538.375,-181.564"/>
</g>
<!-- transformers&#45;base -->
<g id="node31" class="node"><title>transformers&#45;base</title>
<ellipse fill="none" stroke="black" cx="368.146" cy="-234" rx="74.187" ry="18"/>
<text text-anchor="middle" x="368.146" y="-230.3" font-family="Times,serif" font-size="14.00">transformers&#45;base</text>
</g>
<!-- monad&#45;control&#45;&gt;transformers&#45;base -->
<g id="edge43" class="edge"><title>monad&#45;control&#45;&gt;transformers&#45;base</title>
<path fill="none" stroke="black" d="M388.61,-288.055C385.571,-280.176 381.884,-270.617 378.481,-261.794"/>
<polygon fill="black" stroke="black" points="381.674,-260.346 374.809,-252.275 375.143,-262.865 381.674,-260.346"/>
</g>
<!-- text -->
<g id="node25" class="node"><title>text</title>
<ellipse fill="none" stroke="black" cx="142.146" cy="-378" rx="27" ry="18"/>
<text text-anchor="middle" x="142.146" y="-374.3" font-family="Times,serif" font-size="14.00">text</text>
</g>
<!-- system&#45;filepath&#45;&gt;text -->
<g id="edge29" class="edge"><title>system&#45;filepath&#45;&gt;text</title>
<path fill="none" stroke="black" d="M203.187,-432.411C192,-422.622 177.742,-410.147 165.821,-399.715"/>
<polygon fill="black" stroke="black" points="167.837,-396.829 158.007,-392.878 163.228,-402.097 167.837,-396.829"/>
</g>
<!-- text&#45;&gt;binary -->
<g id="edge40" class="edge"><title>text&#45;&gt;binary</title>
<path fill="none" stroke="black" d="M142.146,-359.697C142.146,-351.983 142.146,-342.712 142.146,-334.112"/>
<polygon fill="black" stroke="black" points="145.646,-334.104 142.146,-324.104 138.646,-334.104 145.646,-334.104"/>
</g>
<!-- mtl&#45;&gt;transformers -->
<g id="edge34" class="edge"><title>mtl&#45;&gt;transformers</title>
<path fill="none" stroke="black" d="M626.547,-144.055C624.431,-136.261 621.869,-126.822 619.496,-118.079"/>
<polygon fill="black" stroke="black" points="622.832,-117.009 616.835,-108.275 616.077,-118.843 622.832,-117.009"/>
</g>
<!-- stm&#45;&gt;array -->
<g id="edge35" class="edge"><title>stm&#45;&gt;array</title>
<path fill="none" stroke="black" d="M332.652,-143.697C332.431,-135.983 332.166,-126.712 331.921,-118.112"/>
<polygon fill="black" stroke="black" points="335.419,-118 331.635,-108.104 328.422,-118.2 335.419,-118"/>
</g>
<!-- transformers&#45;compat&#45;&gt;ghc&#45;prim -->
<g id="edge37" class="edge"><title>transformers&#45;compat&#45;&gt;ghc&#45;prim</title>
<path fill="none" stroke="black" d="M481.431,-144.441C456.711,-124.482 412.318,-91.2332 369.146,-72 313.803,-47.3448 245.008,-32.8255 201.082,-25.3906"/>
<polygon fill="black" stroke="black" points="201.451,-21.9045 191.016,-23.7375 200.317,-28.812 201.451,-21.9045"/>
</g>
<!-- transformers&#45;compat&#45;&gt;transformers -->
<g id="edge38" class="edge"><title>transformers&#45;compat&#45;&gt;transformers</title>
<path fill="none" stroke="black" d="M526.891,-144.765C542.345,-135.018 562.17,-122.516 578.813,-112.021"/>
<polygon fill="black" stroke="black" points="581.092,-114.721 587.683,-106.427 577.358,-108.801 581.092,-114.721"/>
</g>
<!-- transformers&#45;&gt;base -->
<g id="edge36" class="edge"><title>transformers&#45;&gt;base</title>
<path fill="none" stroke="black" d="M612.146,-71.6966C612.146,-63.9827 612.146,-54.7125 612.146,-46.1124"/>
<polygon fill="black" stroke="black" points="615.646,-46.1043 612.146,-36.1043 608.646,-46.1044 615.646,-46.1043"/>
</g>
<!-- hashable&#45;&gt;text -->
<g id="edge39" class="edge"><title>hashable&#45;&gt;text</title>
<path fill="none" stroke="black" d="M156.314,-504.032C153.036,-493.737 149.2,-480.261 147.146,-468 143.716,-447.524 142.508,-424.067 142.135,-406.376"/>
<polygon fill="black" stroke="black" points="145.632,-406.137 141.998,-396.185 138.633,-406.231 145.632,-406.137"/>
</g>
<!-- transformers&#45;base&#45;&gt;stm -->
<g id="edge44" class="edge"><title>transformers&#45;base&#45;&gt;stm</title>
<path fill="none" stroke="black" d="M359.673,-216.055C355.529,-207.767 350.455,-197.618 345.858,-188.424"/>
<polygon fill="black" stroke="black" points="348.902,-186.686 341.299,-179.307 342.641,-189.817 348.902,-186.686"/>
</g>
<!-- transformers&#45;base&#45;&gt;transformers&#45;compat -->
<g id="edge45" class="edge"><title>transformers&#45;base&#45;&gt;transformers&#45;compat</title>
<path fill="none" stroke="black" d="M397.663,-217.465C416.511,-207.545 441.17,-194.566 461.689,-183.767"/>
<polygon fill="black" stroke="black" points="463.57,-186.732 470.789,-178.977 460.31,-180.537 463.57,-186.732"/>
</g>
</g>
</svg>
